<svg xmlns="http://www.w3.org/2000/svg" version="1.1" xmlns:xlink="http://www.w3.org/1999/xlink" width="512" height="512" x="0" y="0" viewBox="0 0 48 48" style="enable-background:new 0 0 512 512" xml:space="preserve" fill-rule="evenodd" class=""><g><path fill="#d80000" d="M28.127 16.709a2.5 2.5 0 0 0-2.492-2.71h-2.742a2.5 2.5 0 0 0-2.492 2.71l.75 9A2.502 2.502 0 0 0 23.644 28h1.24c1.301 0 2.385-.999 2.493-2.292zm-1.994-.168-.75 9a.5.5 0 0 1-.499.458h-1.24a.5.5 0 0 1-.499-.458l-.75-9a.5.5 0 0 1 .498-.54h2.742a.499.499 0 0 1 .498.54zM27.266 31.66a2.501 2.501 0 0 0-2.502-2.501h-1a2.501 2.501 0 0 0-2.501 2.5v1.001a2.501 2.501 0 0 0 2.5 2.502h1.001a2.501 2.501 0 0 0 2.502-2.502zm-2.001 0v1a.504.504 0 0 1-.5.5h-1.001a.504.504 0 0 1-.354-.146.504.504 0 0 1-.146-.354v-1c0-.133.053-.26.146-.354a.504.504 0 0 1 .354-.146h1c.133 0 .26.053.354.146a.504.504 0 0 1 .147.354z" opacity="1" data-original="#5095d4" class=""></path><path fill="#1d1d1b" d="M23.388 2.36 9.597 8.072A2.507 2.507 0 0 0 8.239 9.43L2.526 23.221a2.51 2.51 0 0 0 0 1.92L8.24 38.934a2.507 2.507 0 0 0 1.358 1.358l13.79 5.712a2.51 2.51 0 0 0 1.921 0L39.1 40.291a2.507 2.507 0 0 0 1.358-1.358l5.713-13.791a2.51 2.51 0 0 0 0-1.92L40.457 9.43a2.507 2.507 0 0 0-1.358-1.358L25.31 2.36a2.51 2.51 0 0 0-1.921 0zm.765 1.849a.514.514 0 0 1 .39 0l13.79 5.711a.514.514 0 0 1 .276.276l5.712 13.79a.514.514 0 0 1 0 .39l-5.712 13.79a.514.514 0 0 1-.276.277l-13.79 5.711a.514.514 0 0 1-.39 0l-13.79-5.711a.514.514 0 0 1-.276-.276l-5.712-13.79a.514.514 0 0 1 0-.39l5.712-13.79a.514.514 0 0 1 .276-.277z" opacity="1" data-original="#3b3b3b" class=""></path></g></svg>