<svg xmlns="http://www.w3.org/2000/svg" version="1.1" xmlns:xlink="http://www.w3.org/1999/xlink" width="512" height="512" x="0" y="0" viewBox="0 0 24 24" style="enable-background:new 0 0 512 512" xml:space="preserve" class=""><g><g fill-rule="evenodd" clip-rule="evenodd"><path fill="#36c100" d="M18.962 14.477a.75.75 0 0 1 1.06-.015 8.626 8.626 0 0 0 .605.495c.242.19.526.413.797.642.291.247.593.522.827.798.118.138.234.293.324.46.086.162.175.385.175.643s-.089.48-.175.642c-.09.168-.206.323-.323.461a7.363 7.363 0 0 1-.827.797c-.272.23-.556.453-.798.643l-.06.047a8.626 8.626 0 0 0-.544.448.75.75 0 1 1-1.046-1.076c.162-.157.419-.36.664-.551l.057-.045c.245-.193.508-.4.757-.61a.385.385 0 0 1 .007-.006H14a.75.75 0 0 1 0-1.5h6.462a26.465 26.465 0 0 0-.764-.616l-.057-.045a9.422 9.422 0 0 1-.664-.551.75.75 0 0 1-.015-1.06z" opacity="1" data-original="#08aee9" class=""></path><g fill="#b620fe"><path d="M14.882 4.286a114.356 114.356 0 0 0-5.764 0c-1.597.04-2.713.07-3.574.22-.827.144-1.343.388-1.768.814-.427.429-.667.938-.806 1.742-.146.84-.171 1.923-.204 3.478-.021.975-.021 1.945 0 2.92.033 1.555.058 2.638.204 3.478.14.804.38 1.313.806 1.742.425.426.94.67 1.768.814.861.15 1.977.18 3.574.22.797.02 1.592.032 2.385.035a.75.75 0 0 1-.006 1.5c-.804-.004-1.61-.015-2.417-.036l-.058-.001c-1.525-.038-2.752-.07-3.735-.24-1.03-.18-1.867-.524-2.573-1.233-.704-.707-1.046-1.532-1.222-2.544-.168-.965-.193-2.162-.225-3.645l-.001-.058a69.824 69.824 0 0 1 0-2.984l.001-.058c.032-1.483.057-2.68.225-3.645.176-1.012.518-1.837 1.222-2.544.706-.71 1.543-1.053 2.573-1.232.983-.172 2.21-.202 3.735-.24l.058-.002c1.953-.05 3.887-.05 5.84 0l.058.001c1.525.039 2.752.07 3.735.24 1.03.18 1.866.524 2.573 1.233.704.707 1.046 1.532 1.222 2.544.168.965.193 2.162.225 3.645l.001.058c.01.502.016 1.5.016 1.992a.75.75 0 0 1-1.5 0c0-.49-.005-1.475-.016-1.96-.033-1.555-.058-2.638-.204-3.478-.14-.804-.38-1.313-.806-1.742-.425-.426-.94-.67-1.768-.814-.861-.15-1.977-.18-3.574-.22z" fill="#1d1d1b" opacity="1" data-original="#b620fe" class=""></path><path d="M6.354 8.118a.75.75 0 0 1 1.028-.264l2.942 1.74c.844.5 1.293.656 1.676.656s.832-.157 1.676-.656l2.942-1.74a.75.75 0 1 1 .764 1.292l-2.942 1.74c-.871.514-1.623.864-2.44.864s-1.569-.35-2.44-.865l-2.942-1.74a.75.75 0 0 1-.264-1.027z" fill="#1d1d1b" opacity="1" data-original="#b620fe" class=""></path></g></g></g></svg>